<svg xmlns="http://www.w3.org/2000/svg" viewBox="0 0 900 480" font-family="Inter,system-ui,sans-serif">
  <defs>
    <marker id="arrow" viewBox="0 0 10 10" refX="9" refY="5" markerWidth="6" markerHeight="6" orient="auto">
      <path d="M0,0 L10,5 L0,10 z" fill="#0F1E3D"/>
    </marker>
    <style>
      .box{fill:#fff;stroke:#0F1E3D;stroke-width:2;rx:8}
      .label{font-size:14px;font-weight:600;fill:#0F1E3D}
      .sub{font-size:11px;fill:#475569}
      .arrow{stroke:#0F1E3D;stroke-width:1.6;fill:none;marker-end:url(#arrow)}
      .arrowtxt{font-size:11px;fill:#2563EB;font-weight:500}
      .accent{fill:#2563EB}
    </style>
  </defs>
  <text x="20" y="32" font-size="20" font-weight="700" fill="#0F1E3D">AimSync — System Architecture</text>

  <!-- Browser -->
  <rect class="box" x="30" y="80" width="180" height="80"/>
  <text class="label" x="120" y="115" text-anchor="middle">Browser</text>
  <text class="sub" x="120" y="135" text-anchor="middle">React Client Components</text>
  <text class="sub" x="120" y="150" text-anchor="middle">Tailwind + shadcn/ui</text>

  <!-- Next.js -->
  <rect class="box" x="290" y="60" width="220" height="160" fill="#F8FAFC"/>
  <text class="label" x="400" y="90" text-anchor="middle">Next.js 14 on Vercel</text>
  <rect x="310" y="105" width="180" height="40" rx="4" fill="#E0E7FF" stroke="#2563EB"/>
  <text class="sub" x="400" y="123" text-anchor="middle" font-weight="600">App Router (RSC)</text>
  <text class="sub" x="400" y="137" text-anchor="middle">Server Components fetch data</text>
  <rect x="310" y="155" width="180" height="50" rx="4" fill="#E0E7FF" stroke="#2563EB"/>
  <text class="sub" x="400" y="172" text-anchor="middle" font-weight="600">Route Handlers (API)</text>
  <text class="sub" x="400" y="188" text-anchor="middle">/api/ai-coach</text>
  <text class="sub" x="400" y="200" text-anchor="middle">/api/time-travel · /api/export</text>

  <!-- Supabase -->
  <rect class="box" x="600" y="60" width="270" height="240" fill="#F0FDF4"/>
  <text class="label" x="735" y="90" text-anchor="middle">Supabase</text>
  <rect x="620" y="105" width="230" height="42" rx="4" fill="#fff" stroke="#10B981"/>
  <text class="sub" x="735" y="122" text-anchor="middle" font-weight="600">Auth</text>
  <text class="sub" x="735" y="138" text-anchor="middle">Email + password, RLS user.id</text>
  <rect x="620" y="155" width="230" height="60" rx="4" fill="#fff" stroke="#10B981"/>
  <text class="sub" x="735" y="172" text-anchor="middle" font-weight="600">Postgres</text>
  <text class="sub" x="735" y="188" text-anchor="middle">users · goals · achievements</text>
  <text class="sub" x="735" y="202" text-anchor="middle">checkins · audit_log · cycles</text>
  <rect x="620" y="225" width="230" height="62" rx="4" fill="#fff" stroke="#10B981"/>
  <text class="sub" x="735" y="242" text-anchor="middle" font-weight="600">RLS + Triggers</text>
  <text class="sub" x="735" y="257" text-anchor="middle">role-based row policies</text>
  <text class="sub" x="735" y="272" text-anchor="middle">audit on locked goals</text>

  <!-- Groq -->
  <rect class="box" x="290" y="320" width="220" height="80" fill="#FFF7ED"/>
  <text class="label" x="400" y="350" text-anchor="middle">Groq API</text>
  <text class="sub" x="400" y="370" text-anchor="middle">llama-3.3-70b-versatile</text>
  <text class="sub" x="400" y="385" text-anchor="middle">SMART goal rewriting</text>

  <!-- Arrows -->
  <line class="arrow" x1="210" y1="120" x2="290" y2="120"/>
  <text class="arrowtxt" x="250" y="113" text-anchor="middle">HTTPS</text>

  <line class="arrow" x1="510" y1="140" x2="600" y2="140"/>
  <text class="arrowtxt" x="555" y="133" text-anchor="middle">@supabase/ssr</text>

  <line class="arrow" x1="510" y1="190" x2="600" y2="190"/>
  <text class="arrowtxt" x="555" y="183" text-anchor="middle">service role (admin)</text>

  <line class="arrow" x1="400" y1="220" x2="400" y2="320"/>
  <text class="arrowtxt" x="430" y="270">POST /chat/completions</text>

  <text class="sub" x="30" y="460">Roles: Employee · Manager · Admin · all enforced via Postgres Row Level Security and server-side requireRole().</text>
</svg>
